<?xml version="1.0" encoding="iso-8859-1"?>
<!-- Generator: Adobe Illustrator 16.0.0, SVG Export Plug-In . SVG Version: 6.00 Build 0)  -->
<!DOCTYPE svg PUBLIC "-//W3C//DTD SVG 1.1//EN" "http://www.w3.org/Graphics/SVG/1.1/DTD/svg11.dtd">
<svg version="1.1" id="Capa_1" xmlns="http://www.w3.org/2000/svg" xmlns:xlink="http://www.w3.org/1999/xlink" x="0px" y="0px"
	 width="477.288px" height="477.288px" viewBox="0 0 477.288 477.288" style="enable-background:new 0 0 477.288 477.288;"
	 xml:space="preserve">
<g>
	<path d="M476.768,173.83c0.966-1.413,0.545-3.25-0.922-4.105l-49.583-29.2c-1.476-0.859-3.154-0.276-3.768,1.302l-88.676,227.941
		c-2.232-1.11-4.953-2.385-8.096-3.747l88.384-225.787v-13.85c0-1.695-1.37-3.078-3.073-3.078h-12.832l-84.829,237.929
		c-1.863-0.653-3.819-1.294-5.858-1.924l86.388-242.301l-6.079-11.744c-0.79-1.507-2.793-2.741-4.492-2.741h-12.988l-66.836,255.587
		c-1.924-0.537-3.911-1.069-5.951-1.578l67.665-258.752l-7.774-10.598c-1.01-1.373-3.134-2.054-4.761-1.523l-12.996,4.256
		l-46.979,265.49c-1.96-0.429-3.983-0.833-6.039-1.202l46.634-263.582l-11.393-17.082c-0.934-1.42-2.99-2.058-4.561-1.428
		l-20.018,7.977l-17.616,273.026c-2.008-0.276-4.048-0.513-6.111-0.713L291.332,77.58l-9.622-8.652
		c-1.258-1.13-3.551-1.525-5.121-0.859l-20.698,8.718l6.104,274.911c-2.072-0.052-4.12-0.067-6.164-0.044l-6.095-275.707
		l-13.79-7.602c-1.486-0.815-3.817-0.673-5.197,0.314l-12.127,8.771l35.262,274.26c-2.088,0.057-4.147,0.133-6.18,0.24L212.59,78.84
		l-16.747-10.361c-1.453-0.892-3.406-0.487-4.376,0.91l-5.608,8.095l59.568,274.599c-2.1,0.145-4.159,0.321-6.184,0.521
		L179.671,77.962l-12.188-6.344c-1.507-0.786-3.198-0.126-3.769,1.483l-5.063,14.172l78.041,265.631
		c-2.112,0.244-4.167,0.513-6.188,0.81L152.996,89.873l-19.027-8.884l-6.352,19.754L227.41,354.19
		c-2.128,0.345-4.19,0.713-6.184,1.102l-99.903-253.748l-13.567-2.338c-1.681-0.291-2.507,0.743-1.848,2.316l107.253,255.458
		c-8.734,2.016-15.635,4.164-19.867,5.626L89.975,109.739c-0.645-1.567-2.346-2.142-3.799-1.26l-25.505,15.298
		c-1.461,0.87-2.938,2.927-3.29,4.593l-8.478,38.83l-36.474,4.396c-1.697,0.197-3.548,1.649-4.156,3.232
		c-1.936,5.079-5.957,15.566-7.889,20.64c-0.613,1.591-0.479,4.104,0.293,5.628l104.928,206.545
		c0.775,1.511,2.691,2.284,4.302,1.715l55.867-19.725l33.093-13.377c67.004-16.919,134.437,7.442,134.437,7.442l4.425-5.847
		l0.168,0.188c0,0,3.021-4.417,3.021-4.429L476.768,173.83z M107.339,278.774l-24.798,10.043l-5.3-9.902l24.964-9.898
		L107.339,278.774z M21.502,194.783l13.724-2.894l-2.204-4.705l23.071-5.652l5.206,9.878l-23.175,6.663l-1.563-3.328l-13.555,2.863
		L21.502,194.783z M32.228,214.968l12.733-2.695l-1.805-3.837l23.792-5.827l5.362,9.79l-24.045,6.923l-1.964-4.182l-12.567,2.653
		L32.228,214.968z M44.026,237.161l14.307-3.025l-1.661-3.517l22.397-5.484l5.213,9.894l-22.503,6.48l-2.12-4.501l-14.142,2.99
		L44.026,237.161z M57.943,263.35l33.875-14.021l1.445,2.737l-33.865,14.021L57.943,263.35z M64.193,275.111l33.843-13.997
		l1.444,2.736l-33.834,14.007L64.193,275.111z M75.953,297.253l34.031-13.478l1.445,2.737L77.406,299.99L75.953,297.253z
		 M89.683,303.34l25.108-10.427l5.799,11.024L94.904,314.18L89.683,303.34z M97.613,338l-1.459-2.736l33.621-13.918l1.444,2.736
		L97.613,338z M109.241,359.877l10.902-4.316l-2.527-4.637l22.492-10.006l6.712,12.76l-22.47,9.642l-2.741-5.029l-10.916,4.324
		L109.241,359.877z M117.239,374.949l33.795-13.293l1.444,2.737L118.7,377.686L117.239,374.949z M142.408,390.506l-3.446-6.304
		l19.965-7.559l3.09,6.416L142.408,390.506z"/>
</g>
<g>
</g>
<g>
</g>
<g>
</g>
<g>
</g>
<g>
</g>
<g>
</g>
<g>
</g>
<g>
</g>
<g>
</g>
<g>
</g>
<g>
</g>
<g>
</g>
<g>
</g>
<g>
</g>
<g>
</g>
</svg>
